<svg version="1.1" xmlns="http://www.w3.org/2000/svg" xmlns:xlink="http://www.w3.org/1999/xlink" width="635" height="770"><desc>aboxright%20left%20of%20Client%3Aplain%20request%0Arbox%20over%20Client%3A1.sign%20(clientPrivateMlsk)%20%2B%20encrypt%20(serverPublicMlek)%0AClient-%3EServer%3A%20encrypted%20request%0Arbox%20over%20Server%3A2.decrypt%20(serverPrivateMlek)%20%2B%20verify%20(clientPublicMlsk)%0Aaboxright%20right%20of%20Server%3Aplain%20request%0Anote%20right%20of%20Server%3A...server%20logic...%0Aaboxleft%20right%20of%20Server%3Aplain%20response%0Arbox%20over%20Server%3A3.sign%20(serverPrivateMlsk)%20%2B%20encrypt%20(clientPublicMlek)%0AServer-%3EClient%3Aencrypted%20response%0Arbox%20over%20Client%3A4.decrypt%20(clientPrivateMlek)%20%2B%20verify%20(serverPublicMlek)%0Aaboxleft%20left%20of%20Client%3Aplain%20response%0A</desc><defs/><g><g/><g/><g/><g/><g/><g/><g/><g/><g/><g/><g/><g><rect fill="white" stroke="none" x="0" y="0" width="635" height="770"/></g><g/><g><path fill="none" stroke="black" paint-order="fill stroke markers" d=" M 212.09618192429687 55.049635120999994 L 212.09618192429687 770.5315396609998" stroke-miterlimit="10" stroke-width="1.3612669416666667" stroke-dasharray="12.565541,5.445067766666667"/><path fill="none" stroke="black" paint-order="fill stroke markers" d=" M 424.19236384859374 55.049635120999994 L 424.19236384859374 770.5315396609998" stroke-miterlimit="10" stroke-width="1.3612669416666667" stroke-dasharray="12.565541,5.445067766666667"/></g><g><path fill="none" stroke="none"/><g><path fill="white" stroke="black" paint-order="fill stroke markers" d=" M 175.63233589213672 10.944586211000003 L 248.56002795645705 10.944586211000003 L 248.56002795645705 55.049635120999994 L 175.63233589213672 55.049635120999994 L 175.63233589213672 10.944586211000003 Z" stroke-miterlimit="10" stroke-width="2.613632528" stroke-dasharray=""/></g><g><g/><text fill="black" stroke="none" font-family="sans-serif" font-size="11pt" font-style="normal" font-weight="normal" text-decoration="normal" x="193.35603147263672" y="38.71443182099999" text-anchor="start" dominant-baseline="alphabetic" xml:space="preserve">Client</text></g><path fill="none" stroke="none"/><g><path fill="white" stroke="black" paint-order="fill stroke markers" d=" M 384.87956456936325 10.944586211000003 L 463.5051631278242 10.944586211000003 L 463.5051631278242 55.049635120999994 L 384.87956456936325 55.049635120999994 L 384.87956456936325 10.944586211000003 Z" stroke-miterlimit="10" stroke-width="2.613632528" stroke-dasharray=""/></g><g><g/><text fill="black" stroke="none" font-family="sans-serif" font-size="11pt" font-style="normal" font-weight="normal" text-decoration="normal" x="402.6032601498633" y="38.71443182099999" text-anchor="start" dominant-baseline="alphabetic" xml:space="preserve">Server</text></g></g><g><path fill="white" stroke="black" paint-order="fill stroke markers" d=" M 212.09618192429687 106.50552551599998 L 203.92858027429688 106.50552551599998 M 74.24588871984375 87.72004172099999 L 189.22689730429687 87.72004172099999 L 203.92858027429688 106.50552551599998 L 189.22689730429687 125.29100931099998 L 74.24588871984375 125.29100931099998 L 74.24588871984375 87.72004172099999" stroke-miterlimit="10" stroke-width="1.3612669416666667" stroke-dasharray=""/><g><text fill="black" stroke="none" font-family="sans-serif" font-size="11pt" font-style="normal" font-weight="normal" text-decoration="normal" x="97.11517333984375" y="110.58932634099999" text-anchor="start" dominant-baseline="alphabetic" xml:space="preserve">plain request</text></g><path fill="white" stroke="black" paint-order="fill stroke markers" d=" M 12.645049159765625 164.49549723099997 L 12.645049159765627 164.49549723099997 A 14.70168297 14.70168297 0 0 1 27.346732129765627 149.79381426099997 L 396.84563171882814 149.79381426099997 L 396.84563171882814 149.79381426099997 A 14.70168297 14.70168297 0 0 1 411.5473146888281 164.49549723099997 L 411.5473146888281 172.66309888099997 L 411.5473146888281 172.66309888099997 A 14.70168297 14.70168297 0 0 1 396.84563171882814 187.36478185099998 L 27.346732129765627 187.36478185099998 L 27.346732129765627 187.36478185099998 A 14.70168297 14.70168297 0 0 1 12.645049159765627 172.66309888099997 L 12.645049159765625 164.49549723099997" stroke-miterlimit="10" stroke-width="1.3612669416666667" stroke-dasharray=""/><g><text fill="black" stroke="none" font-family="sans-serif" font-size="11pt" font-style="normal" font-weight="normal" text-decoration="normal" x="35.51433377976562" y="172.66309888099994" text-anchor="start" dominant-baseline="alphabetic" xml:space="preserve">1.sign (clientPrivateMlsk) + encrypt (serverPublicMlek)</text></g><g><g><rect fill="white" stroke="none" x="257.0182874353906" y="211.867586801" width="122.25197090210938" height="21.23576429"/></g><text fill="black" stroke="none" font-family="sans-serif" font-size="11pt" font-style="normal" font-weight="normal" text-decoration="normal" x="259.46856793039063" y="226.56926977099997" text-anchor="start" dominant-baseline="alphabetic" xml:space="preserve">encrypted request</text></g><g><path fill="none" stroke="black" paint-order="fill stroke markers" d=" M 212.09618192429687 233.10335109099998 L 410.7430464649271 233.10335109099998" stroke-miterlimit="10" stroke-width="1.3612669416666667" stroke-dasharray=""/><g transform="translate(424.19236384859374,233.10335109099998) translate(-424.19236384859374,-233.10335109099998)"><path fill="black" stroke="none" paint-order="stroke fill markers" d=" M 410.57969443192707 226.29701638266664 L 424.19236384859374 233.10335109099998 L 410.57969443192707 239.90968579933332 Z"/></g></g><path fill="white" stroke="black" paint-order="fill stroke markers" d=" M 220.67537415046874 272.30783901099994 L 220.67537415046874 272.30783901099994 A 14.70168297 14.70168297 0 0 1 235.37705712046875 257.60615604099996 L 613.0076705767187 257.60615604099996 L 613.0076705767187 257.60615604099996 A 14.70168297 14.70168297 0 0 1 627.7093535467187 272.30783901099994 L 627.7093535467187 280.475440661 L 627.7093535467187 280.475440661 A 14.70168297 14.70168297 0 0 1 613.0076705767187 295.177123631 L 235.37705712046875 295.177123631 L 235.37705712046875 295.177123631 A 14.70168297 14.70168297 0 0 1 220.67537415046874 280.475440661 L 220.67537415046874 272.30783901099994" stroke-miterlimit="10" stroke-width="1.3612669416666667" stroke-dasharray=""/><g><text fill="black" stroke="none" font-family="sans-serif" font-size="11pt" font-style="normal" font-weight="normal" text-decoration="normal" x="243.54465877046874" y="280.47544066099994" text-anchor="start" dominant-baseline="alphabetic" xml:space="preserve">2.decrypt (serverPrivateMlek) + verify (clientPublicMlsk)</text></g><path fill="white" stroke="black" paint-order="fill stroke markers" d=" M 424.19236384859374 338.46541237599996 L 432.35996549859374 338.46541237599996 M 432.35996549859374 319.67992858099996 L 547.340974083047 319.67992858099996 L 562.0426570530469 338.46541237599996 L 547.340974083047 357.25089617099997 L 432.35996549859374 357.25089617099997 L 432.35996549859374 319.67992858099996" stroke-miterlimit="10" stroke-width="1.3612669416666667" stroke-dasharray=""/><g><text fill="black" stroke="none" font-family="sans-serif" font-size="11pt" font-style="normal" font-weight="normal" text-decoration="normal" x="455.22925011859377" y="342.54921320099993" text-anchor="start" dominant-baseline="alphabetic" xml:space="preserve">plain request</text></g><path fill="white" stroke="black" paint-order="fill stroke markers" d=" M 424.19236384859374 400.53918491599995 L 432.35996549859374 400.53918491599995 M 432.35996549859374 381.75370112099995 L 562.7883465195704 381.75370112099995 L 577.4900294895704 396.4553840909999 L 577.4900294895704 419.32466871099996 L 432.35996549859374 419.32466871099996 L 432.35996549859374 381.75370112099995 M 562.7883465195704 381.75370112099995 L 562.7883465195704 396.4553840909999 L 577.4900294895704 396.4553840909999" stroke-miterlimit="10" stroke-width="1.3612669416666667" stroke-dasharray=""/><g><text fill="black" stroke="none" font-family="sans-serif" font-size="11pt" font-style="normal" font-weight="normal" text-decoration="normal" x="455.22925011859377" y="404.6229857409999" text-anchor="start" dominant-baseline="alphabetic" xml:space="preserve">...server logic...</text></g><path fill="white" stroke="black" paint-order="fill stroke markers" d=" M 424.19236384859374 462.61295745599995 L 432.35996549859374 462.61295745599995 M 447.0616484685937 443.82747366099994 L 573.4528133030469 443.82747366099994 L 573.4528133030469 481.39844125099995 L 447.0616484685937 481.39844125099995 L 432.35996549859374 462.61295745599995 L 447.0616484685937 443.82747366099994" stroke-miterlimit="10" stroke-width="1.3612669416666667" stroke-dasharray=""/><g><text fill="black" stroke="none" font-family="sans-serif" font-size="11pt" font-style="normal" font-weight="normal" text-decoration="normal" x="455.22925011859377" y="466.6967582809999" text-anchor="start" dominant-baseline="alphabetic" xml:space="preserve">plain response</text></g><path fill="white" stroke="black" paint-order="fill stroke markers" d=" M 224.7412310840625 520.6029291709999 L 224.7412310840625 520.6029291709999 A 14.70168297 14.70168297 0 0 1 239.4429140540625 505.90124620099994 L 608.941813643125 505.90124620099994 L 608.941813643125 505.90124620099994 A 14.70168297 14.70168297 0 0 1 623.643496613125 520.6029291709999 L 623.643496613125 528.770530821 L 623.643496613125 528.770530821 A 14.70168297 14.70168297 0 0 1 608.941813643125 543.472213791 L 239.4429140540625 543.472213791 L 239.4429140540625 543.472213791 A 14.70168297 14.70168297 0 0 1 224.7412310840625 528.770530821 L 224.7412310840625 520.6029291709999" stroke-miterlimit="10" stroke-width="1.3612669416666667" stroke-dasharray=""/><g><text fill="black" stroke="none" font-family="sans-serif" font-size="11pt" font-style="normal" font-weight="normal" text-decoration="normal" x="247.6105157040625" y="528.770530821" text-anchor="start" dominant-baseline="alphabetic" xml:space="preserve">3.sign (serverPrivateMlsk) + encrypt (clientPublicMlek)</text></g><g><g><rect fill="white" stroke="none" x="251.31320931039065" y="567.9750187409999" width="133.66212715210938" height="21.23576429"/></g><text fill="black" stroke="none" font-family="sans-serif" font-size="11pt" font-style="normal" font-weight="normal" text-decoration="normal" x="253.76348980539063" y="582.6767017109999" text-anchor="start" dominant-baseline="alphabetic" xml:space="preserve">encrypted response</text></g><g><path fill="none" stroke="black" paint-order="fill stroke markers" d=" M 424.19236384859374 589.2107830309999 L 225.54549930796355 589.2107830309999" stroke-miterlimit="10" stroke-width="1.3612669416666667" stroke-dasharray=""/><g transform="translate(212.09618192429687,589.2107830309999) translate(-212.09618192429687,-589.2107830309999)"><path fill="black" stroke="none" paint-order="stroke fill markers" d=" M 225.70885134096355 582.4044483226666 L 212.09618192429687 589.2107830309999 L 225.70885134096355 596.0171177393332 Z"/></g></g><path fill="white" stroke="black" paint-order="fill stroke markers" d=" M 8.16760165 628.4152709509998 L 8.167601650000002 628.4152709509998 A 14.70168297 14.70168297 0 0 1 22.869284620000002 613.7135879809998 L 401.32307922859377 613.7135879809998 L 401.32307922859377 613.7135879809998 A 14.70168297 14.70168297 0 0 1 416.02476219859375 628.4152709509998 L 416.02476219859375 636.5828726009998 L 416.02476219859375 636.5828726009998 A 14.70168297 14.70168297 0 0 1 401.32307922859377 651.2845555709998 L 22.869284620000002 651.2845555709998 L 22.869284620000002 651.2845555709998 A 14.70168297 14.70168297 0 0 1 8.167601650000002 636.5828726009998 L 8.16760165 628.4152709509998" stroke-miterlimit="10" stroke-width="1.3612669416666667" stroke-dasharray=""/><g><text fill="black" stroke="none" font-family="sans-serif" font-size="11pt" font-style="normal" font-weight="normal" text-decoration="normal" x="31.036886269999997" y="636.5828726009998" text-anchor="start" dominant-baseline="alphabetic" xml:space="preserve">4.decrypt (clientPrivateMlek) + verify (serverPublicMlek)</text></g><path fill="white" stroke="black" paint-order="fill stroke markers" d=" M 212.09618192429687 694.5728443159998 L 203.92858027429688 694.5728443159998 M 77.53741543984376 675.7873605209998 L 203.92858027429688 675.7873605209998 L 203.92858027429688 713.3583281109998 L 77.53741543984376 713.3583281109998 L 62.835732469843755 694.5728443159998 L 77.53741543984376 675.7873605209998" stroke-miterlimit="10" stroke-width="1.3612669416666667" stroke-dasharray=""/><g><text fill="black" stroke="none" font-family="sans-serif" font-size="11pt" font-style="normal" font-weight="normal" text-decoration="normal" x="85.70501708984375" y="698.6566451409998" text-anchor="start" dominant-baseline="alphabetic" xml:space="preserve">plain response</text></g></g><g/><g/></g></svg>